<?xml version="1.0" encoding="utf-8"?>
<!-- Generator: Adobe Illustrator 28.4.1, SVG Export Plug-In . SVG Version: 6.00 Build 0)  -->
<svg version="1.1" id="Layer_1" xmlns="http://www.w3.org/2000/svg" xmlns:xlink="http://www.w3.org/1999/xlink" x="0px" y="0px"
	 viewBox="0 0 745.2 745.2" style="enable-background:new 0 0 745.2 745.2;" xml:space="preserve">
<style type="text/css">
	.st0{fill:#C3384E;}
</style>
<g>
	<path class="st0" d="M699.5,373.1c0,107.5,0,214.9,0.1,322.4c0,3.4-0.7,4.1-4.1,4.1c-215.3-0.1-430.5-0.1-645.8,0
		c-3.4,0-4.1-0.7-4.1-4.1c0.1-215.3,0.1-430.5,0-645.8c0-3.4,0.7-4.1,4.1-4.1c215.3,0.1,430.5,0.1,645.8,0c3.4,0,4.1,0.7,4.1,4.1
		C699.5,157.5,699.5,265.3,699.5,373.1z M463.5,301.6L463.5,301.6c4.5-3.2,8.4-6.9,11.9-11.1l0.1-0.1c1.1-0.7,1.9-1.4,2-2.8
		c3.4-5.4,6.4-11.1,6.4-17.7c0-34.3,0-68.6,0-102.9c0-14.1,0-28.3,0-42.4c0-1.2,0.6-3-0.9-3.6c-1.4-0.5-2.3,1.1-3.2,1.9
		c-7.2,6.6-14.5,13.1-21.6,19.8c-4,3.8-7.4,8.1-8.8,13.6c-1,0.9-1.4,2-1.1,3.3c-1.4,2.2-1.3,4.8-1.3,7.2c0,37.9,0,75.8,0,113.7
		c0,1.7,0.2,3.3,0.3,5c-0.7,5.4-0.7,10.7,0,16.1c-0.5,2-0.5,3.9,0,5.9c-0.8,2.1-0.4,4.2-0.3,6.3c0.2,2.3,1.5,2.4,2.9,1.1
		c2.4-2.4,4.7-4.9,7-7.4l0.3-0.1l0.1-0.3C460,305.9,461.9,303.9,463.5,301.6z M278.6,125.7c-3.9,3-7.7,6.2-10.7,10.1l-0.2,0.1
		c-6.3,5-12.7,9.9-15.7,17.8c-0.1,0.3-0.3,0.6-0.4,0.9c-2.3,3.2-3.1,6.9-3.1,10.8c0,48.1,0,96.2,0,144.3c0,1.9-0.4,4,0.9,6.4
		c6.4-5.7,12.9-11,18.5-17.3l-0.1,0.1c8.4-6.2,15.5-13.3,17.2-24.2c0.2-2.3,0.4-4.6,0.4-6.9c0-35.7,0-71.5,0-107.2
		c0-6.3-0.1-12.6-0.2-18.9c0-7,0-14,0-21.5C282.2,121.5,280.4,123.6,278.6,125.7L278.6,125.7z M385.3,119.8
		c-1.5,0.8-2.3,1.1-2.8,1.6c-8.3,7.6-16.9,15.1-24.9,23.1c-6,6-9.7,13.4-9.7,22.3c0,47.9,0,95.9,0,143.8c0,1.7-0.7,3.6,1.3,5.7
		c9.4-8.9,19.1-17.5,28.1-26.8c5.8-5.9,8-13.5,8-21.9c-0.1-26.5-0.1-52.9-0.1-79.4C385.3,165.7,385.3,143.2,385.3,119.8z
		 M335.8,198.2c0-24.5,0-48.9,0-73.4c0-1.3,0.8-3.3-1-4c-1.3-0.5-2.2,1.2-3.2,2c-6.5,5.9-12.7,12.2-19.5,17.8
		c-9.1,7.5-13.6,16.8-13.6,28.5c0,33.3,0,66.6,0,99.9c0,14.5,0,29,0,43.4c0,1-0.6,2.5,0.9,3c1.1,0.4,1.7-0.7,2.5-1.4
		c8.2-7.6,16.6-14.9,24.5-22.8c6.3-6.3,9.6-14.1,9.5-23.4C335.6,244.8,335.8,221.5,335.8,198.2z M397.6,238.2
		C397.6,238.2,397.6,238.2,397.6,238.2c0,24.5,0,49,0,73.4c0,1.2-0.7,3,0.7,3.6c1.5,0.7,2.3-0.9,3.2-1.8
		c8.3-7.7,16.7-15.3,24.6-23.3c5.6-5.6,8.5-12.5,8.4-20.7c-0.2-15-0.1-30-0.1-45c0-33,0-65.9,0-98.9c0-1.5,0.8-3.7-1-4.4
		c-1.5-0.6-2.6,1.2-3.6,2.2c-7.7,7.1-15.6,14-22.9,21.5c-6,6.1-9.3,13.6-9.3,22.4C397.7,190.9,397.6,214.5,397.6,238.2z
		 M431.5,420.9c1.7,0,4.3,0,7,0c3.7-0.1,4.3-2.5,4-5.5c-0.2-3.1,1.4-7.8-3.7-7.6c-5.9,0.2-5.7-2.9-5-6.9c0.6-3.3,1.1-6.6,2.9-9.5
		c2.6-4.4,3.8-4.4,7.3-0.5c8.3,9.6,16.6,19.1,24.8,28.7c4.1,4.8,6.9,1,10.1-1.2c3.5-2.5,3-5,0.5-7.9c-4.3-4.9-8.4-9.9-12.7-14.7
		c-1.8-2.1-1.7-3.6,0.3-5.5c8.7-8.4,10.6-19.3,11.2-30.6c0.1-2.5-1.3-3.7-3.6-3.8c-5.2,0-10.3-0.1-15.5,0.1
		c-3.9,0.1-3.8,3.1-3.7,5.8c0.1,2.8-1.1,6.9,3.5,6.9c5.5,0,4.5,2.9,3.6,6.1c-0.6,2.1-1.2,4.2-2.2,6.1c-2.1,3.9-3.6,3.9-6.5,0.6
		c-6.9-7.9-14.3-15.3-20.8-23.5c-3.3-4.1-5.5-3.7-10.5,0.6c-3.3,2.8-3.3,5.4-0.4,8.4c3,3.1,5.7,6.5,8.6,9.7c1.2,1.4,2.2,2.6,0.3,4.1
		c-9.3,7.2-10.4,17.5-11.2,28.2C418.4,423.2,419,420.6,431.5,420.9z M370.2,393.2c-0.1,0-0.2,0-0.3,0c0-8.2,0.4-16.3-0.1-24.5
		c-0.5-8.1-4.6-12.4-12.6-12.8c-12-0.6-24-0.3-35.9-0.4c-2.6,0-4.1,1.3-4,4c0.1,9,0,18,0.4,27c0.2,5.3,3.3,8.3,8.6,8.6
		c5.1,0.3,10.3,0.1,15.5,0.1c2,0,3.5-0.7,4.2-2.8c2-6.6-0.4-9.8-7.1-9.8c-0.8,0-1.7-0.1-2.5,0c-3.6,0.4-5.3-1.2-5.4-4.7
		c-0.1-1.8,0-3.7-0.1-5.5c-0.2-2.8,1.2-3.8,3.9-3.8c5.2,0.1,10.3,0,15.5,0.1c4,0,6.1,1.7,6.1,6.1c-0.2,9.3-0.2,18.6,0,28
		c0.1,3.6-1.1,5-4.9,4.9c-9.8-0.2-19.7,0.1-29.5-0.1c-5.2-0.1-5.4,2.8-5.4,6.7c0,3.9,0.3,6.8,5.5,6.8c14.1-0.2,28.3-0.2,42.5,0
		c4.7,0.1,6.1-2,6-6.3C370,407.5,370.2,400.3,370.2,393.2z M439.6,512.8c1.8,0,3.7,0,5.5,0c10.1-0.1,16.7-4.6,19.2-14.2
		c3.1-12.1,5.4-24.4,7.9-36.6c0.3-1.4,0.5-3-0.9-4.2c-3-2.5-9.9-0.2-10.8,3.6c-2.3,10.7-4.6,21.5-6.8,32.2c-0.6,2.8-1.6,5.2-4.2,6.4
		c-5.1,2.2-10.4,1.9-15.6,0.6c-2.2-0.6-2.8-2.6-3-4.7c-0.2-2.2,1.3-2.7,3-3.3c7-2.5,10.7-7.6,11.9-14.7c0.8-4.9,1.8-9.8,2.4-14.8
		c0.3-2.4,1.9-5.4-2.7-5.9c-6.5-0.7-8.2,0.1-8.8,4.9c-0.6,4.8-1.1,9.6-1.6,14.4c-0.2,2.2-0.7,4.3-2,6.1c-0.7,0.9-1.4,2.1-2.7,1.9
		c-1.6-0.2-1.3-1.7-1.4-2.8c-0.5-4.3-1-8.6-1.4-12.9c-1.3-13.3,0.5-11.4-13.8-11.6c-0.2,0-0.3,0-0.5,0c-2.7-0.1-4.3,1.2-3.9,3.9
		c0.3,2.8-1.8,7,3.1,7.5c3,0.3,3.5,1.9,3.8,4.2c1,7.3,2.1,14.5,2.9,21.8C421.4,511.2,423.1,512.8,439.6,512.8z M321.4,512.7
		c1.7,0,3.3-0.1,5,0c3,0.1,4.5-1.2,4-4.2c-0.5-2.6,2-7-3.5-7c-3,0-3.6-1.5-3.4-4.1c0.3-3.2,0.7-6.3,2.1-9.2c2-4.3,3.2-4.5,6.1-0.9
		c6.4,7.9,12.8,15.8,19.1,23.7c2.4,3,4.6,3,7.5,0.6c2.9-2.4,4-4.7,1.3-7.9c-2.9-3.4-5.5-7.1-8.5-10.4c-2.5-2.8-2.9-5-0.1-8.1
		c3.8-4.3,6.2-9.5,6.8-15.3c1.4-13.6,3.5-12.9-11.5-12.8c-2.5,0-5.6-0.4-5.4,3.4c0.1,3-2,7.6,3.9,7.9c2.2,0.1,2.3,1.6,1.9,3.2
		c-0.5,2.1-0.9,4.3-1.8,6.2c-1.8,4-3.1,4.1-5.8,0.8c-5.3-6.4-10.6-12.8-15.8-19.3c-2.1-2.6-4-3.9-7-1.4c-2.8,2.4-5.5,4.7-2.1,8.6
		c2.3,2.6,4.5,5.3,6.8,8c1.1,1.3,1.8,2.6,0.3,3.9c-7.4,6.4-8.2,15.1-8.9,24C311.3,512.8,311.2,512.7,321.4,512.7z M233.7,488.4
		c0,0-0.1,0-0.1,0c0-7.2,0.2-14.3-0.1-21.5c-0.2-5.7-3.1-9.3-8.3-9.5c-11.5-0.4-23-0.2-34.5-0.3c-3,0-3.7,2-3.4,4.3
		c0.3,2.5-1.5,6.8,2.7,6.9c6.4,0.1,5.4,2.9,3.8,7c-0.8,2.1-0.8,4.6-0.8,6.9c-0.1,5.2-0.1,10.3,0,15.5c0,2.7-1.1,4.2-3.8,3.8
		c-5.4-0.8-5.4,2.5-5.4,6.4c0,4.2,2.1,5.1,5.7,4.9c2.8-0.1,5.7-0.2,8.5,0c4.1,0.3,5.6-1.5,5.5-5.6c-0.2-8.7-0.3-17.3,0.1-26
		c0.5-11.9,1.4-12.4,13-12.6c4.8-0.1,6.5,1.4,6.4,6.3c-0.2,11.2,0.1,22.3-0.1,33.5c-0.1,4.2,2.3,4.5,5.5,4.4c3.1,0,5.6-0.3,5.5-4.5
		C233.6,501.7,233.7,495,233.7,488.4z M243,392.1c0-7.2,0-14.3,0-21.5c-0.1-10.4-4.1-14.6-14.5-14.7c-11.2-0.1-22.3,0.2-33.5-0.1
		c-4.6-0.1-5.8,1.8-5.6,6c0.2,3.9-0.5,7.9,5.6,7.6c7.8-0.3,15.7-0.1,23.5-0.1c10.7,0,10.7,0,10.7,10.5c0,11.8,0.1,23.6-0.1,35.5
		c-0.1,4.5,1.9,5.8,6.1,5.6c3.9-0.2,8,0.7,7.9-5.4C242.9,407.8,243,400,243,392.1z M547,392.6C547,392.6,547,392.6,547,392.6
		c0-7.5,0.1-15,0-22.5c-0.1-9.7-4.3-14-14-14.2c-11.3-0.2-22.6,0.1-34-0.1c-5.1-0.1-5.7,2.5-5.6,6.6c0.1,4.1,0.2,7.2,5.7,7
		c9.1-0.3,18.3-0.1,27.5,0c6,0,6.6,0.7,6.6,6.6c0,13.1,0.1,26.3-0.1,39.4c0,4.1,1.4,5.9,5.6,5.5c3.8-0.3,8.5,1.2,8.3-5.4
		C546.9,407.9,547,400.3,547,392.6z M302.4,392.6c0-3.7,0-7.3,0-11c0-3.7,0-7.3-0.2-11c-0.6-10.2-4.8-14.3-15.1-14.6
		c-9-0.3-18,0-27-0.1c-6.2-0.1-5,4.2-5.3,7.9c-0.3,4.2,1.5,5.7,5.5,5.6c6.7-0.2,13.3-0.1,20-0.1c7.1,0,7.8,0.7,7.8,7.6
		c0.1,12.7,0.3,25.3,0,38c-0.1,4.8,1.8,6.1,6.2,6c6.9-0.1,7.9-0.6,8-5.9C302.5,407.6,302.4,400.1,302.4,392.6z M291.6,457.2
		C291.6,457.2,291.6,457.1,291.6,457.2c-1,0-2,0-3,0c-10.3,0-10.5,0-11.1-10.4c-0.2-4-2.5-4.4-5.7-4.4c-3,0-5.8-0.1-5.7,4.2
		c0.1,5.8,0,11.6-0.1,17.5c0,3.4,1.4,4.8,4.8,4.7c5.8-0.1,11.6-0.1,17.5,0c6.8,0,6.8,0.1,4.3,6.2c-4.3,10.4-8.6,20.9-12.9,31.3
		c-0.9,2.1-2,4.6,0.8,6.2c3.6,2.1,9.1-0.1,10.7-4c3.4-8.6,7-17.2,10.2-26c2.4-6.8,6.5-13.1,5.4-21c-0.4-2.9-1.4-4.3-4.3-4.3
		C298.9,457.2,295.3,457.2,291.6,457.2z M405.7,388.7c0-8.8-0.2-17.7,0.1-26.5c0.2-5-2-6.5-6.5-6.4c-4.2,0.2-8.3,0.3-12.5,0.1
		c-5-0.3-5.2,2.8-5.1,6.5c0.1,3.6-0.3,7.5,5.1,6.9c4.5-0.5,5.2,1.7,5.1,5.6c-0.2,13.7,0,27.3,0,41c0,6.3,4.6,4.8,8.1,5.1
		c3.8,0.3,5.9-0.7,5.8-5.2C405.5,406.7,405.7,397.7,405.7,388.7z M548.7,488.3C548.6,488.3,548.6,488.3,548.7,488.3
		c0-6.8,0.1-13.6-0.1-20.4c-0.2-7-3.6-10.5-10.5-10.6c-9-0.2-18,0.1-26.9-0.1c-4.4-0.1-4.8,2.2-4.8,5.6c0,3.5,0.2,6.3,4.9,6.1
		c6.5-0.2,13-0.1,19.4-0.1c7,0,7,0.1,7,6.9c0,10.6,0.1,21.3-0.1,31.9c-0.1,4.4,2,5.3,5.8,5.4c3.8,0.1,5.4-1.1,5.3-5.2
		C548.5,501.2,548.7,494.8,548.7,488.3z M403.6,488.1C403.6,488.1,403.6,488.1,403.6,488.1c0-6.5,0.1-13,0-19.5
		c-0.1-7-3.8-10.9-10.7-11.3c-7.5-0.3-15-0.1-22.5-0.2c-4.8-0.1-3.9,3.4-4,6.3c-0.1,3,0.2,5.3,4.1,5.2c5.3-0.1,10.7,0.2,16-0.1
		c4.9-0.3,6.4,1.8,6.3,6.5c-0.2,11,0,22-0.1,32.9c0,4.2,2.4,4.7,5.9,4.7c3.5,0,5.3-1,5.2-4.8C403.5,501.4,403.6,494.7,403.6,488.1z
		 M401.5,579.2c-0.5,6.4,1,7.5,8.5,6.6c1.6-0.2,3-0.4,3.3-2.3c0.3-1.9-0.4-3.5-2.4-3.6c-3.1-0.3-3.2-2.2-3.1-4.6
		c0.2-3.2,0.9-6.3,2.1-9.2c1.8-4.2,3.3-4.4,6.2-1c5.3,6.2,10.5,12.5,15.7,18.7c1.3,1.6,2.9,3.2,5,1.1c1.8-1.7,1.2-3.5-0.2-5.3
		c-2.7-3.2-5.2-6.5-8-9.6c-1.8-2-2.3-3.5-0.1-5.8c3.5-3.6,5.6-8.1,6.3-13.3c1.2-8.5,0.2-9.6-8.4-8.5c-1.9,0.2-3.3,0.7-3.3,2.9
		c0,1.8,0.4,3.3,2.7,3.4c2.9,0.1,3.2,1.8,2.5,4.1c-0.7,2-1.3,4.1-2.3,6c-1.7,3.1-3.7,3.9-6.3,0.6c-3.9-5-8.2-9.6-12.2-14.5
		c-1.5-1.8-3.1-2.9-5.1-1.3c-2,1.5-1.4,3.5,0,5.3c1.7,2.1,3.4,4.1,5.1,6.1c1.1,1.3,2.2,2.7,0.6,4.3
		C402.5,564.8,402.3,572.1,401.5,579.2z M240.2,567c0,0-0.1,0-0.1,0c0-5,0.2-10-0.1-15c-0.3-6-3.1-9-9-9.3c-6.3-0.4-12.6-0.2-19-0.2
		c-2.3,0-4,1-4,3.5c0,5.7-0.5,11.3,0.3,17c0.5,3.5,2.4,5.4,5.9,5.5c2.7,0.1,5.3,0.1,8,0.1c1.7,0,3-0.5,3-2.4c0-1.8-0.3-3.4-2.4-3.8
		c-1.1-0.2-2.3-0.2-3.5-0.2c-4.2,0.3-5.5-1.7-5.5-5.7c0.1-8,0-8,8.2-8c1.8,0,3.7,0.1,5.5,0c4.1-0.1,6.2,1.7,6.1,6
		c-0.1,7-0.2,14,0,21c0.1,3.4-1.3,4.3-4.4,4.3c-6.2-0.1-12.3,0-18.5-0.1c-2.1,0-4.2,0.1-4.4,2.8c-0.2,2.9,1.9,3.4,4.3,3.4
		c8.3,0,16.6-0.1,25,0c3.2,0,4.5-1.2,4.4-4.4C240.1,576.6,240.2,571.8,240.2,567z M549.1,566.6c-0.1,0-0.1,0-0.2,0
		c0-5.3,0.2-10.6-0.1-16c-0.2-4.2-2.2-7.7-6.8-7.9c-8.5-0.3-17-0.2-25.4-0.2c-1.8,0-2.8,0.9-2.9,2.7c-0.1,1.7,0.6,3.2,2.3,3.3
		c4.1,0.2,3.8,2.1,2.8,5.2c-0.7,2.1-0.7,4.6-0.7,6.9c-0.1,5.2,0,10.3,0,15.5c0,2-0.2,3.6-2.9,3.6c-2.2,0-5.1-0.7-5.2,2.9
		c-0.1,4,3.3,2.8,5.4,3.5c0.8,0.3,1.6,0.3,2.4,0.3c4.3,0.3,6.5-1.2,6.3-5.9c-0.3-6.6-0.1-13.3,0-20c0.1-11.4,0.5-11.8,11.6-11.8
		c0.2,0,0.3,0,0.5,0c4.7-0.6,6.6,1.3,6.5,6.1c-0.3,8.8-0.1,17.6,0,26.5c0,2.3,0.2,4.5,3.4,4.3c2.8-0.1,3-2.1,3-4.2
		C549.1,576.6,549.1,571.6,549.1,566.6z M378,585.8C378,585.8,378,585.8,378,585.8c4.3,0.1,8.7,0,13,0.1c2,0,3.8-0.4,4.1-2.7
		c0.2-2-1.1-3.1-3-3.3c-1.8-0.3-2.4-0.7-2.1-2.9c1.3-8.6,0.6-17.3,0.4-25.9c-0.1-6.1-2.6-8.3-8.8-8.5c-5-0.2-10,0-15-0.1
		c-2.3,0-3.9,0.5-3.9,3.2c0,2.8,1.9,3.1,4.1,3.1c4.3,0,8.7,0.1,13,0c3.4-0.1,4.8,1.4,4.8,4.8c-0.1,6.8-0.1,13.7,0,20.5
		c0.1,4.1-1.9,5.7-5.8,5.6c-4.7-0.1-9.3,0-14,0c-2,0-3.8,0.3-3.8,2.8c-0.1,2.7,1.6,3.3,3.9,3.2C369.3,585.8,373.7,585.8,378,585.8z
		 M485.7,548.9c1.5,0,3,0,4.5,0c7.6,0,7.6,0,4.6,7.2c-3.5,8.3-7,16.5-10.4,24.8c-1.4,3.3,0,5.6,2.7,5.1c2.2-0.4,2.7-2.4,3.4-4
		c3.9-9,7.7-18,11.4-27.1c1-2.4,2.5-4.7,2.6-7.5c0.2-3.2-0.6-5.1-4.3-5c-4.7,0.2-9.3-0.3-14,0.2c-4.9,0.5-7.2-0.9-6.4-6.2
		c0.3-2,0.6-4.6-2.7-4.7c-3.7-0.1-3.1,2.7-3.2,4.9C473.5,548.7,473.5,548.7,485.7,548.9z M508.4,402.6
		C508.3,402.6,508.3,402.6,508.4,402.6c0-2.5,0-5,0-7.5c0-2.5,0-5,0-7.5c0-2.8-1.2-4.1-4.2-4.3c-5.9-0.2-7.9,1.3-9.1,7.9
		c-1.4,8.1-0.4,16.3-0.7,24.4c-0.2,4,1.6,5.6,5.3,5.2c3.6-0.3,8.7,1.8,8.8-4.8C508.4,411.6,508.4,407.1,508.4,402.6z M317.2,585.8
		C317.2,585.8,317.2,585.9,317.2,585.8c4.3,0.1,8.7,0.1,13,0c1.6,0,3.5,0.1,3.8-2.3c0.2-1.9-0.5-3.4-2.5-3.7
		c-2.2-0.3-2.5-1.2-2.2-3.3c1.1-8.6,0.6-17.3,0.3-25.9c-0.2-5.6-2.5-7.8-8.1-8.1c-5.3-0.3-10.6-0.1-16-0.1c-1.9,0-3.7,0.2-3.8,2.8
		c-0.1,2.6,1.4,3.5,3.8,3.5c4.3,0,8.7,0.1,13-0.1c3.5-0.1,5.3,1.2,5.3,4.9c-0.1,7,0,14,0,21c0,3.5-1.5,5.2-5.1,5.2
		c-4.8-0.1-9.7,0-14.5,0c-2,0-3.7,0.3-3.8,2.8c-0.1,2.8,1.7,3.3,3.9,3.3C308.6,585.8,312.9,585.8,317.2,585.8z M204.3,402.2
		C204.3,402.2,204.3,402.2,204.3,402.2c0-4,0-8,0-12c-0.1-6.5-0.9-7.1-7.2-6.8c-4.9,0.2-5.4,4.1-6,7.3c-1.7,8.7-0.9,17.6-0.7,26.4
		c0.1,5.4,4.9,3.6,8.1,3.9c3.1,0.3,5.8-0.3,5.9-4.2C204.4,411.8,204.3,407,204.3,402.2z M258.8,473.4c0-4,0-8,0-12
		c0-2.5-1.1-4.2-3.8-4.2c-4-0.1-8-0.1-12,0c-2.9,0.1-3.5,2.2-3.2,4.5c0.3,2.5-1.4,6.7,2.9,6.7c5.4,0,5.4,2.9,5.1,6.7
		c-0.2,2.7,0.1,5.3-0.1,8c-0.2,3.7,0.6,5.9,5.1,5.9c4.6,0,6.4-1.6,6-6.1C258.6,479.7,258.8,476.6,258.8,473.4z M518.1,496.7
		C518.1,496.7,518.1,496.7,518.1,496.7c-0.1-4-0.1-8-0.1-12c0-3.3-1.8-4.2-4.8-4.1c-3.3,0.1-4.6,2-5.4,4.9c-2,7.4-0.6,14.9-1.1,22.3
		c-0.3,4.1,1.9,5,5.5,5c3.7,0,6.2-0.7,5.9-5.2C518,504.1,518.1,500.4,518.1,496.7z M197,564.5C197,564.5,196.9,564.5,197,564.5
		c0-5.6-0.2-11.3,0-16.9c0.1-3.9-1.2-5.6-5.2-5.1c-1.5,0.2-3,0-4.5,0c-2,0-3.7,0.4-3.7,3c0,2.3,1.1,3.4,3.3,3.3c3.4-0.2,4,1.8,4,4.7
		c-0.1,9.5,0,18.9,0,28.4c0,2.3,0.5,3.9,3.3,3.9c2.7,0,2.8-1.9,2.8-3.8C197,576.2,197,570.4,197,564.5z M352.9,554.6
		C353,554.6,353,554.6,352.9,554.6c0.1-1,0.1-2,0.1-3c0-9.4-0.5-9.8-9.8-9.2c-2.1,0.1-3.5,0.5-3.6,3c0,2.3,1,3.4,3.2,3.3
		c3.6-0.2,3.9,2,3.8,4.8c-0.1,3.1,0,6.3,0,9.4c0,1.9,0.8,3.3,2.8,3.4c2.2,0.1,3.4-1.2,3.4-3.4C353,560.2,352.9,557.4,352.9,554.6z
		 M498,473.4C498,473.4,498,473.4,498,473.4c0-0.8,0-1.7,0-2.5c-0.3-15.7,2.4-13.6-14.4-13.8c-3,0-5,0.8-4.6,4.2
		c0.4,2.9-1.6,7.4,4,7.3c3.3,0,3.8,1.7,3.8,4.4c-0.1,4-0.1,8,0,12c0.1,3.9,2.9,3.8,5.7,3.8c2.8,0,5.5,0,5.5-4
		C498,481,498,477.2,498,473.4z M261.6,554.4c0-12.5,0-12.4-9.4-11.9c-2,0.1-3.7,0.3-3.9,2.8c-0.1,2.5,0.9,3.8,3.5,3.6
		c3.3-0.3,3.8,1.6,3.7,4.4c-0.1,3,0,6-0.1,9c0,2.2,0.2,4.1,3,4.2c2.7,0.1,3.2-1.8,3.2-4C261.6,559.7,261.6,557,261.6,554.4z
		 M282.4,561.2C282.4,561.2,282.4,561.2,282.4,561.2c-3,0-6,0-9,0c-1.7,0-3,1-3.1,2.7c-0.1,1.8,1.3,2.8,2.9,2.8
		c5.8,0.2,11.6,0.2,17.4,0.1c1.6,0,2.9-0.9,3-2.7c0.1-2.2-1.6-2.8-3.3-2.9C287.8,561.1,285.1,561.2,282.4,561.2z M456.6,561.3
		C456.6,561.3,456.6,561.2,456.6,561.3c-3,0-6-0.1-9,0c-1.7,0.1-3,0.9-2.9,2.7c0,1.8,1.4,2.7,3,2.8c5.8,0.1,11.6,0.1,17.5,0
		c1.4,0,2.6-0.9,2.7-2.5c0.1-1.8-1-2.9-2.7-2.9C462.3,561.2,459.5,561.3,456.6,561.3z"/>
</g>
</svg>
